<?xml version="1.0" encoding="utf-8"?>
<!-- Generator: Adobe Illustrator 17.0.2, SVG Export Plug-In . SVG Version: 6.00 Build 0)  -->
<!DOCTYPE svg PUBLIC "-//W3C//DTD SVG 1.1//EN" "http://www.w3.org/Graphics/SVG/1.1/DTD/svg11.dtd">
<svg version="1.1" id="Layer_1" xmlns="http://www.w3.org/2000/svg" xmlns:xlink="http://www.w3.org/1999/xlink" x="0px" y="0px"
	 width="525.519px" height="144.277px" viewBox="0 0 525.519 144.277" enable-background="new 0 0 525.519 144.277"
	 xml:space="preserve">
<g>
	<path fill="#484444" d="M219.052,124.803c-5.506,0-10.533-0.981-15.08-2.941c-4.549-1.959-8.447-4.774-11.701-8.447
		c-3.254-3.67-5.777-8.134-7.57-13.39c-1.795-5.256-2.691-11.22-2.691-17.896c0-6.674,0.897-12.618,2.691-17.832
		c1.793-5.213,4.316-9.593,7.57-13.14c3.254-3.545,7.152-6.257,11.701-8.134c4.547-1.877,9.574-2.816,15.08-2.816
		c5.506,0,10.531,0.939,15.08,2.816c4.545,1.877,8.445,4.611,11.699,8.197c3.254,3.588,5.777,7.99,7.572,13.203
		c1.793,5.215,2.69,11.118,2.69,17.707c0,6.676-0.897,12.64-2.69,17.896c-1.795,5.256-4.318,9.72-7.572,13.39
		c-3.254,3.673-7.154,6.488-11.699,8.447C229.583,123.821,224.558,124.803,219.052,124.803z M219.052,108.909
		c5.588,0,10.012-2.397,13.266-7.195c3.252-4.797,4.879-11.325,4.879-19.585c0-8.175-1.627-14.558-4.879-19.146
		c-3.254-4.587-7.678-6.883-13.266-6.883c-5.59,0-10.012,2.295-13.266,6.883c-3.254,4.589-4.881,10.972-4.881,19.146
		c0,8.26,1.627,14.788,4.881,19.585C209.04,106.512,213.462,108.909,219.052,108.909z"/>
	<path fill="#484444" d="M262.599,83.005c0-6.758,1.043-12.784,3.129-18.083c2.086-5.297,4.9-9.781,8.447-13.453
		c3.545-3.67,7.676-6.464,12.389-8.385c4.713-1.918,9.699-2.878,14.955-2.878c5.088,0,9.697,1.064,13.828,3.191
		c4.129,2.128,7.57,4.611,10.324,7.446l-10.137,11.388c-2.086-1.918-4.193-3.42-6.32-4.505c-2.127-1.083-4.609-1.626-7.445-1.626
		c-2.838,0-5.486,0.606-7.947,1.814c-2.461,1.211-4.609,2.941-6.443,5.193c-1.836,2.252-3.275,5.005-4.318,8.259
		c-1.043,3.253-1.565,6.926-1.565,11.012c0,8.428,1.795,14.955,5.383,19.585c3.584,4.631,8.383,6.945,14.391,6.945
		c3.336,0,6.256-0.667,8.76-2.002c2.502-1.334,4.754-3.086,6.758-5.256l10.137,11.138c-3.422,4.004-7.322,7.008-11.701,9.01
		c-4.381,2.003-9.117,3.004-14.205,3.004c-5.256,0-10.219-0.897-14.891-2.69c-4.674-1.793-8.76-4.443-12.264-7.947
		c-3.504-3.504-6.258-7.862-8.26-13.077C263.601,95.875,262.599,89.847,262.599,83.005z"/>
	<path fill="#484444" d="M333.054,106.031c0-6.508,2.752-11.596,8.258-15.268c5.508-3.67,14.393-6.132,26.656-7.383
		c-0.168-2.754-1.002-4.943-2.502-6.57c-1.502-1.627-3.924-2.44-7.26-2.44c-2.67,0-5.34,0.501-8.008,1.502
		c-2.672,1.001-5.508,2.378-8.51,4.13l-6.508-12.139c4.004-2.419,8.197-4.38,12.576-5.882c4.381-1.501,9.029-2.252,13.953-2.252
		c8.01,0,14.121,2.274,18.334,6.82c4.211,4.548,6.32,11.618,6.32,21.212v35.54h-15.018l-1.377-6.382h-0.375
		c-2.672,2.336-5.486,4.235-8.447,5.693c-2.963,1.459-6.195,2.19-9.699,2.19c-2.836,0-5.381-0.481-7.633-1.439
		s-4.172-2.294-5.756-4.005c-1.586-1.709-2.816-3.691-3.693-5.944C333.491,111.162,333.054,108.702,333.054,106.031z
		 M350.573,104.654c0,2.003,0.645,3.484,1.94,4.442c1.293,0.961,3.023,1.439,5.193,1.439c2.168,0,4.004-0.457,5.506-1.376
		c1.502-0.918,3.086-2.21,4.756-3.88V94.391c-6.592,0.919-11.137,2.253-13.641,4.005
		C351.825,100.15,350.573,102.235,350.573,104.654z"/>
	<path fill="#484444" d="M397.124,61.23h15.018l1.252,8.009h0.5c2.586-2.585,5.338-4.818,8.26-6.695
		c2.92-1.877,6.424-2.816,10.512-2.816c4.422,0,7.988,0.897,10.699,2.69c2.711,1.795,4.859,4.36,6.445,7.696
		c2.754-2.835,5.65-5.275,8.697-7.321c3.045-2.043,6.652-3.066,10.826-3.066c6.672,0,11.574,2.233,14.703,6.695
		c3.129,4.464,4.693,10.574,4.693,18.333v38.544h-18.396V87.133c0-4.505-0.606-7.591-1.814-9.261
		c-1.211-1.668-3.15-2.503-5.818-2.503c-3.088,0-6.633,2.003-10.639,6.007v41.923h-18.394V87.133c0-4.505-0.607-7.591-1.815-9.261
		c-1.211-1.668-3.15-2.503-5.82-2.503c-3.172,0-6.676,2.003-10.512,6.007v41.923h-18.397L397.124,61.23L397.124,61.23z"/>
	<path fill="#484444" d="M499.366,35.576h18.396v69.203c0,1.921,0.354,3.254,1.062,4.005c0.709,0.751,1.439,1.126,2.191,1.126
		c0.416,0,0.769,0,1.062,0c0.291,0,0.69-0.082,1.19-0.25l2.252,13.641c-1,0.416-2.273,0.771-3.816,1.063
		c-1.545,0.292-3.359,0.438-5.443,0.438c-3.172,0-5.842-0.501-8.01-1.502c-2.17-1.001-3.9-2.397-5.193-4.192
		c-1.295-1.793-2.232-3.961-2.816-6.507c-0.584-2.544-0.875-5.401-0.875-8.572L499.366,35.576L499.366,35.576z"/>
	<g>
		<path fill="none" d="M82.911,97.9l0.023-0.061C82.899,97.685,82.888,97.65,82.911,97.9z"/>
		
			<linearGradient id="SVGID_1_" gradientUnits="userSpaceOnUse" x1="-696.7335" y1="97.7" x2="-696.7335" y2="142.9971" gradientTransform="matrix(1 0 0 1 758 1.28)">
			<stop  offset="0" style="stop-color:#F29100"/>
			<stop  offset="1" style="stop-color:#EC670F"/>
		</linearGradient>
		<path fill="url(#SVGID_1_)" d="M82.224,134.04c-0.459-0.978-1.854-3.524-2.553-4.34c-1.52-1.779-1.875-1.913-2.322-4.159
			c-0.777-3.911-2.834-11.004-5.258-15.899c-1.252-2.526-3.334-4.648-5.24-6.48c-1.664-1.607-5.414-4.311-6.068-4.177
			c-6.125,1.223-8.025,7.23-10.906,11.989c-1.594,2.632-3.283,4.871-4.539,7.671c-1.16,2.575-1.057,5.426-3.043,7.637
			c-2.037,2.27-3.361,4.684-4.359,7.617c-0.189,0.558-0.727,6.417-1.311,7.798l9.104-0.641c8.482,0.578,6.033,3.829,19.273,3.121
			l20.906-0.647c-0.648-1.916-1.541-4.135-1.885-4.856C83.439,137.46,82.706,135.084,82.224,134.04z"/>
		
			<linearGradient id="SVGID_2_" gradientUnits="userSpaceOnUse" x1="-666.972" y1="142.1198" x2="-666.972" y2="142.1198" gradientTransform="matrix(1 0 0 1 758 1.28)">
			<stop  offset="0" style="stop-color:#F29100"/>
			<stop  offset="1" style="stop-color:#EC670F"/>
		</linearGradient>
		<path fill="url(#SVGID_2_)" d="M91.028,143.4"/>
		
			<linearGradient id="SVGID_3_" gradientUnits="userSpaceOnUse" x1="-675.2275" y1="-1.2803" x2="-675.2275" y2="142.9666" gradientTransform="matrix(1 0 0 1 758 1.28)">
			<stop  offset="0" style="stop-color:#F29100"/>
			<stop  offset="1" style="stop-color:#EC670F"/>
		</linearGradient>
		<path fill="url(#SVGID_3_)" d="M108.726,90.75c-1.607,1.16-4.748,3.95-11.58,5.005c-3.066,0.474-5.934,0.513-9.082,0.356
			c-1.541-0.074-2.994-0.153-4.539-0.173c-0.91-0.007-3.963-0.104-3.812,0.188l-0.34,0.848c0.053,0.279,0.164,0.976,0.195,1.145
			c0.125,0.685,0.16,1.23,0.186,1.86c0.047,1.295-0.107,2.645-0.041,3.952c0.137,2.711,1.143,5.182,1.27,7.917
			c0.139,3.045,1.645,6.267,3.102,8.754c0.553,0.947,1.395,1.055,1.762,2.221c0.43,1.336,0.023,2.753,0.232,4.177
			c0.82,5.521,2.41,11.292,4.896,16.275c0.018,0.042,0.037,0.087,0.059,0.125c3.07-0.516,6.146-1.62,10.135-2.21
			c7.314-1.085,17.486-0.526,24.02-1.138c16.533-1.554,25.506,6.781,40.355,3.365V20.857C165.544,9.339,156.21,0,144.689,0H20.856
			C9.338,0,0.001,9.339,0.001,20.857v45.507c2.984-1.079,7.276-7.428,8.621-8.972c2.353-2.7,2.78-6.144,3.952-8.313
			c2.669-4.94,3.128-8.337,9.195-8.337c2.828,0,3.951,0.652,5.864,3.219c1.331,1.785,3.63,5.083,4.706,7.288
			c1.242,2.544,3.266,5.986,4.156,6.681c0.659,0.516,1.313,0.903,1.923,1.132c0.984,0.369,1.798-0.308,2.456-0.832
			c0.84-0.669,1.202-2.032,1.98-3.85c1.121-2.623,2.343-5.766,3.038-6.863c1.203-1.896,1.613-4.146,2.912-5.236
			c1.916-1.607,4.416-1.72,5.104-1.856c3.849-0.76,5.599,1.855,7.495,3.546c1.241,1.108,2.937,3.34,4.141,6.331
			c0.941,2.336,2.139,4.497,2.64,5.846c0.484,1.302,1.679,3.389,2.387,5.891c0.643,2.272,2.364,4.013,3.018,5.093
			c0,0,1.001,2.804,7.088,5.367c1.32,0.556,3.988,1.46,5.58,2.039c2.645,0.961,5.207,0.836,8.469,0.445
			c2.326,0,3.586-3.368,4.643-6.065c0.625-1.594,1.224-6.162,1.632-7.459c0.394-1.262-0.529-2.238,0.258-3.344
			c0.92-1.291,1.467-1.361,1.998-3.044c1.141-3.604,7.736-3.786,11.443-3.786c3.09,0,2.697,3,7.939,1.974
			c3.002-0.589,5.895,0.387,9.082,1.231c2.684,0.712,5.207,1.523,6.719,3.293c0.978,1.146,3.406,6.888,0.932,7.133
			c0.238,0.291,0.412,0.816,0.857,1.104c-0.551,2.166-2.949,0.623-4.281,0.345c-1.795-0.372-3.062,0.056-4.818,0.833
			c-3.002,1.337-7.393,1.181-10.008,3.359c-2.219,1.846-2.215,5.967-3.25,8.276C117.872,78.832,114.999,86.227,108.726,90.75z"/>
		
			<linearGradient id="SVGID_4_" gradientUnits="userSpaceOnUse" x1="-735.1375" y1="90.8334" x2="-735.1375" y2="141.9672" gradientTransform="matrix(1 0 0 1 758 1.28)">
			<stop  offset="0" style="stop-color:#F29100"/>
			<stop  offset="1" style="stop-color:#EC670F"/>
		</linearGradient>
		<path fill="url(#SVGID_4_)" d="M39.351,101.251c-1.428-0.145-2.754-0.308-4.141-0.588c-2.59-0.522-5.42-1.031-7.971-1.642
			c-1.549-0.375-6.709-2.202-7.83-2.717c-2.629-1.212-4.375-4.505-6.43-4.166c-1.312,0.214-2.59,0.664-3.406,1.987
			c-0.666,1.079-0.893,2.934-1.354,4.178c-0.535,1.444-1.459,2.792-2.268,4.168c-1.488,2.524-4.166,4.807-5.32,7.266
			c-0.232,0.506-0.438,1.072-0.631,1.662v9.434v16.321v2.358c1.346,0.23,2.754,0.513,4.33,0.934
			c11.631,3.103,14.469,3.366,25.877,2.061l1.07-0.142c0.873-1.816,1.547-8.004,2.113-9.919c0.441-1.468,1.047-2.638,1.277-4.137
			c0.217-1.424-0.02-2.781-0.143-4.075c-0.32-3.242,2.361-4.4,3.641-7.184c1.154-2.519,1.82-5.385,2.775-7.96
			c0.916-2.471,2.346-5.963,4.785-7.207C45.431,101.538,40.632,101.379,39.351,101.251z"/>
	</g>
</g>
</svg>
