<?xml version="1.0" encoding="utf-8"?>
<!-- Generator: Adobe Illustrator 17.0.2, SVG Export Plug-In . SVG Version: 6.00 Build 0)  -->
<!DOCTYPE svg PUBLIC "-//W3C//DTD SVG 1.1//EN" "http://www.w3.org/Graphics/SVG/1.1/DTD/svg11.dtd">
<svg version="1.1" id="Layer_1" xmlns="http://www.w3.org/2000/svg" xmlns:xlink="http://www.w3.org/1999/xlink" x="0px" y="0px"
	 width="841.89px" height="595.28px" viewBox="0 0 841.89 595.28" enable-background="new 0 0 841.89 595.28" xml:space="preserve">
<g>
	<path fill="none" d="M421.084,323.402l0.023-0.061C421.073,323.187,421.061,323.152,421.084,323.402z"/>
	<linearGradient id="SVGID_1_" gradientUnits="userSpaceOnUse" x1="399.4389" y1="324.4817" x2="399.4389" y2="369.7791">
		<stop  offset="0" style="stop-color:#F29100"/>
		<stop  offset="1" style="stop-color:#EC670F"/>
	</linearGradient>
	<path fill="url(#SVGID_1_)" d="M420.397,359.542c-0.459-0.978-1.853-3.524-2.553-4.34c-1.52-1.779-1.875-1.913-2.322-4.159
		c-0.777-3.911-2.834-11.004-5.258-15.899c-1.252-2.526-3.334-4.648-5.24-6.48c-1.664-1.607-5.414-4.311-6.068-4.177
		c-6.125,1.223-8.025,7.23-10.906,11.989c-1.594,2.632-3.283,4.871-4.539,7.671c-1.16,2.575-1.057,5.426-3.043,7.637
		c-2.037,2.27-3.361,4.684-4.359,7.617c-0.189,0.558-0.727,6.417-1.311,7.798l9.103-0.641c8.483,0.578,6.033,3.829,19.273,3.121
		l20.906-0.647c-0.648-1.916-1.541-4.135-1.885-4.856C421.612,362.962,420.879,360.586,420.397,359.542z"/>
	<linearGradient id="SVGID_2_" gradientUnits="userSpaceOnUse" x1="429.2016" y1="368.9015" x2="429.2016" y2="368.9015">
		<stop  offset="0" style="stop-color:#F29100"/>
		<stop  offset="1" style="stop-color:#EC670F"/>
	</linearGradient>
	<path fill="url(#SVGID_2_)" d="M429.202,368.902"/>
	<linearGradient id="SVGID_3_" gradientUnits="userSpaceOnUse" x1="420.9448" y1="225.5011" x2="420.9448" y2="369.749">
		<stop  offset="0" style="stop-color:#F29100"/>
		<stop  offset="1" style="stop-color:#EC670F"/>
	</linearGradient>
	<path fill="url(#SVGID_3_)" d="M446.899,316.252c-1.607,1.16-4.748,3.95-11.58,5.005c-3.066,0.474-5.934,0.513-9.082,0.356
		c-1.541-0.074-2.994-0.153-4.539-0.173c-0.91-0.007-3.963-0.104-3.812,0.188l-0.34,0.848c0.053,0.279,0.164,0.976,0.195,1.145
		c0.125,0.685,0.16,1.23,0.186,1.86c0.047,1.295-0.107,2.645-0.041,3.952c0.137,2.711,1.143,5.182,1.27,7.917
		c0.139,3.045,1.645,6.267,3.102,8.754c0.553,0.947,1.395,1.055,1.762,2.221c0.43,1.336,0.023,2.753,0.232,4.177
		c0.82,5.521,2.41,11.292,4.896,16.275c0.018,0.042,0.037,0.087,0.059,0.125c3.07-0.516,6.146-1.62,10.135-2.21
		c7.314-1.085,17.486-0.526,24.02-1.138c16.533-1.554,25.506,6.781,40.355,3.365V246.359c0-11.518-9.334-20.857-20.855-20.857
		H359.03c-11.517,0-20.855,9.339-20.855,20.857v45.507c2.984-1.079,7.276-7.428,8.621-8.972c2.353-2.7,2.78-6.144,3.952-8.313
		c2.669-4.94,3.128-8.337,9.195-8.337c2.828,0,3.951,0.652,5.864,3.219c1.331,1.785,3.63,5.083,4.706,7.288
		c1.242,2.544,3.266,5.986,4.156,6.681c0.659,0.516,1.313,0.903,1.923,1.132c0.984,0.369,1.798-0.308,2.456-0.832
		c0.84-0.669,1.202-2.032,1.98-3.85c1.121-2.623,2.343-5.766,3.038-6.863c1.203-1.896,1.613-4.146,2.912-5.236
		c1.916-1.607,4.416-1.72,5.104-1.856c3.849-0.76,5.599,1.855,7.495,3.546c1.241,1.108,2.937,3.34,4.141,6.331
		c0.941,2.336,2.139,4.497,2.64,5.846c0.484,1.302,1.679,3.389,2.387,5.891c0.643,2.272,2.364,4.013,3.018,5.093
		c0,0,1.001,2.804,7.088,5.367c1.32,0.556,3.988,1.46,5.58,2.039c2.645,0.961,5.207,0.836,8.469,0.445
		c2.326,0,3.586-3.368,4.643-6.065c0.625-1.594,1.224-6.162,1.632-7.459c0.395-1.262-0.529-2.238,0.258-3.344
		c0.92-1.291,1.467-1.361,1.998-3.044c1.141-3.604,7.736-3.786,11.443-3.786c3.09,0,2.697,3,7.939,1.974
		c3.002-0.589,5.895,0.387,9.082,1.231c2.684,0.712,5.207,1.523,6.719,3.293c0.978,1.146,3.406,6.888,0.932,7.133
		c0.238,0.291,0.412,0.816,0.857,1.104c-0.551,2.166-2.949,0.623-4.281,0.345c-1.795-0.372-3.062,0.056-4.818,0.833
		c-3.002,1.337-7.393,1.181-10.008,3.359c-2.219,1.846-2.215,5.967-3.25,8.276C456.045,304.334,453.172,311.729,446.899,316.252z"/>
	<linearGradient id="SVGID_4_" gradientUnits="userSpaceOnUse" x1="361.0376" y1="317.6165" x2="361.0376" y2="368.7502">
		<stop  offset="0" style="stop-color:#F29100"/>
		<stop  offset="1" style="stop-color:#EC670F"/>
	</linearGradient>
	<path fill="url(#SVGID_4_)" d="M377.524,326.753c-1.428-0.145-2.754-0.308-4.141-0.588c-2.59-0.522-5.42-1.031-7.971-1.642
		c-1.549-0.375-6.709-2.202-7.83-2.717c-2.629-1.212-4.375-4.505-6.43-4.166c-1.312,0.214-2.59,0.664-3.406,1.987
		c-0.666,1.079-0.892,2.934-1.353,4.178c-0.535,1.444-1.459,2.792-2.268,4.168c-1.488,2.524-4.166,4.807-5.32,7.266
		c-0.232,0.506-0.438,1.072-0.631,1.662v9.434v16.321v2.358c1.346,0.23,2.754,0.513,4.33,0.934
		c11.631,3.103,14.469,3.366,25.877,2.061l1.07-0.142c0.873-1.816,1.547-8.004,2.113-9.919c0.441-1.468,1.047-2.638,1.277-4.137
		c0.217-1.424-0.02-2.781-0.142-4.075c-0.32-3.242,2.361-4.4,3.641-7.184c1.154-2.519,1.82-5.385,2.775-7.96
		c0.916-2.471,2.346-5.963,4.785-7.207C383.604,327.04,378.805,326.881,377.524,326.753z"/>
</g>
<g>
</g>
<g>
</g>
<g>
</g>
<g>
</g>
<g>
</g>
<g>
</g>
</svg>
